<?xml version="1.0" encoding="UTF-8"?>
<svg width="2029.93042px" height="961.319658px" viewBox="0 0 2029.93042 961.319658" version="1.1" xmlns="http://www.w3.org/2000/svg" xmlns:xlink="http://www.w3.org/1999/xlink">
    <title>Group</title>
    <g id="Page-1" stroke="none" stroke-width="1" fill="none" fill-rule="evenodd">
        <g id="2549_SkVNQSBHRVIgMTE3MC0wNA" transform="translate(-186.6528, -455.5803)">
            <g id="Group" transform="translate(186.6544, 455.5803)">
                <path d="M1281.24559,470.263658 L1281.24559,37.6696582 C1281.24559,37.6696582 1290.43559,13.1966582 1314.89559,7.07965821 C1339.37559,0.966658215 1397.48559,7.07965821 1425.01559,7.07965821 C1452.55559,7.07965821 1785.43559,-15.7603418 1813.50559,20.6076582 C1841.57559,56.9746582 1821.16559,273.353658 1821.16559,273.353658 L1761.50559,526.579658 L1281.24559,470.263658" id="Fill-1" fill="#E25D6C"></path>
                <path d="M1747.69559,79.5756582 C1698.80559,88.7516582 1508.38559,58.9276582 1461.34559,65.8106582 C1414.31559,72.6966582 1345.49559,103.763658 1331.72559,81.3456582 C1323.25559,67.5526582 1308.72559,36.4156582 1308.94312,9.08365821 C1310.82559,8.31065821 1312.79559,7.61065821 1314.89559,7.07965821 C1339.37559,0.966658215 1397.48559,7.07965821 1425.01559,7.07965821 C1449.20559,7.07965821 1708.87559,-10.5253418 1790.77559,9.81765821 C1790.38559,29.4896582 1785.20559,72.5326582 1747.69559,79.5756582" id="Fill-2" fill="#E57487"></path>
                <path d="M1281.24559,470.263658 L1281.24559,368.837658 C1366.12559,395.942658 1618.07559,397.267658 1636.08559,350.931658 C1657.50559,295.868658 1749.27559,188.814658 1789.03559,158.216658 C1815.84559,137.599658 1806.51559,61.4316582 1797.58559,11.7246582 C1805.31559,14.1896582 1810.81559,17.1306582 1813.50559,20.6076582 C1841.57559,56.9746582 1821.16559,273.353658 1821.16559,273.353658 L1761.50559,526.579658 L1281.24559,470.263658" id="Fill-3" fill="#D34F65"></path>
                <path d="M1281.24559,37.6696582 C1281.24559,37.6696582 1288.98559,17.1776582 1309.09559,9.02165821 C1301.83559,35.3846582 1297.14559,70.4356582 1308.94559,102.517658 C1331.72559,164.462658 1317.81559,182.817658 1313.29559,203.466658 C1308.78559,224.114658 1315.66559,377.821658 1324.83559,403.060658 C1334.01559,428.298658 1379.90559,455.829658 1370.72559,467.302658 C1364.55559,475.005658 1313.84559,472.353658 1281.24559,469.778658 L1281.24559,37.6696582" id="Fill-4" fill="#C0405D"></path>
                <path d="M1692.85559,152.774658 C1692.85559,152.774658 1689.50559,220.673658 1704.05559,232.142658 C1717.15559,242.466658 1747.69559,237.458658 1747.69559,237.458658 C1747.69559,237.458658 1710.27559,242.466658 1701.09559,259.669658 C1698.96559,263.661658 1690.77559,320.470658 1690.77559,320.470658 C1690.77559,320.470658 1691.18559,273.485658 1679.29559,263.290658 C1664.38559,250.493658 1610.47559,242.466658 1610.47559,242.466658 C1610.47559,242.466658 1663.99559,242.181658 1670.02559,237.876658 C1686.08559,226.403658 1692.85559,152.774658 1692.85559,152.774658" id="Fill-5" fill="#A12E4A"></path>
                <path d="M1543.73559,152.774658 C1543.73559,152.774658 1540.37559,220.673658 1554.92559,232.142658 C1568.02559,242.466658 1598.57559,237.458658 1598.57559,237.458658 C1598.57559,237.458658 1561.14559,242.466658 1551.97559,259.669658 C1549.84559,263.661658 1541.64559,320.470658 1541.64559,320.470658 C1541.64559,320.470658 1542.05559,273.485658 1530.17559,263.290658 C1515.25559,250.493658 1461.34559,242.466658 1461.34559,242.466658 C1461.34559,242.466658 1514.86559,242.181658 1520.89559,237.876658 C1536.95559,226.403658 1543.73559,152.774658 1543.73559,152.774658" id="Fill-6" fill="#A12E4A"></path>
                <path d="M1390.02559,152.774658 C1390.02559,152.774658 1386.66559,220.673658 1401.22559,232.142658 C1414.31559,242.466658 1444.85559,237.458658 1444.85559,237.458658 C1444.85559,237.458658 1407.43559,242.466658 1398.25559,259.669658 C1396.13559,263.661658 1387.93559,320.470658 1387.93559,320.470658 C1387.93559,320.470658 1388.34559,273.485658 1376.46559,263.290658 C1361.54559,250.493658 1307.63559,242.466658 1307.63559,242.466658 C1307.63559,242.466658 1361.15559,242.181658 1367.18559,237.876658 C1383.24559,226.403658 1390.02559,152.774658 1390.02559,152.774658" id="Fill-7" fill="#A12E4A"></path>
                <path d="M1402.84559,242.466658 C1402.84559,251.333658 1395.66559,258.524658 1386.78559,258.524658 C1377.91559,258.524658 1370.72559,251.333658 1370.72559,242.466658 C1370.72559,233.595658 1377.91559,226.403658 1386.78559,226.403658 C1395.66559,226.403658 1402.84559,233.595658 1402.84559,242.466658" id="Fill-8" fill="#E25D6C"></path>
                <path d="M1554.78559,242.466658 C1554.78559,251.333658 1547.59559,258.524658 1538.72559,258.524658 C1529.85559,258.524658 1522.67559,251.333658 1522.67559,242.466658 C1522.67559,233.595658 1529.85559,226.403658 1538.72559,226.403658 C1547.59559,226.403658 1554.78559,233.595658 1554.78559,242.466658" id="Fill-9" fill="#E25D6C"></path>
                <path d="M1706.72559,242.466658 C1706.72559,251.333658 1699.54559,258.524658 1690.66559,258.524658 C1681.80559,258.524658 1674.61559,251.333658 1674.61559,242.466658 C1674.61559,233.595658 1681.80559,226.403658 1690.66559,226.403658 C1699.54559,226.403658 1706.72559,233.595658 1706.72559,242.466658" id="Fill-10" fill="#E25D6C"></path>
                <path d="M1679.07559,236.622658 C1679.07559,236.622658 1692.29559,220.458658 1703.00559,236.622658 C1703.00559,236.622658 1705.67559,240.931658 1699.95559,242.466658 C1694.20559,243.993658 1686.17559,240.552658 1682.35559,242.466658 C1678.53559,244.376658 1675.97559,239.634658 1679.07559,236.622658" id="Fill-11" fill="#EA90A0"></path>
                <path d="M1527.14559,236.622658 C1527.14559,236.622658 1540.36559,220.458658 1551.07559,236.622658 C1551.07559,236.622658 1553.74559,240.931658 1548.01559,242.466658 C1542.27559,243.993658 1534.24559,240.552658 1530.42559,242.466658 C1526.60559,244.376658 1524.04559,239.634658 1527.14559,236.622658" id="Fill-12" fill="#EA90A0"></path>
                <path d="M1375.20559,236.622658 C1375.20559,236.622658 1388.42559,220.458658 1399.12559,236.622658 C1399.12559,236.622658 1401.80559,240.931658 1396.06559,242.466658 C1390.32559,243.993658 1382.29559,240.552658 1378.47559,242.466658 C1374.65559,244.376658 1372.09559,239.634658 1375.20559,236.622658" id="Fill-13" fill="#EA90A0"></path>
                <polyline id="Fill-14" fill="#2B0D0F" points="76.9975942 845.059658 76.9975942 961.319658 106.064594 961.319658 141.384594 845.059658 76.9975942 845.059658"></polyline>
                <polyline id="Fill-15" fill="#6A2527" points="65.7715942 845.059658 65.7715942 961.319658 94.8255942 961.319658 130.154594 845.059658 65.7715942 845.059658"></polyline>
                <path d="M734.158594,470.263658 L734.158594,37.6696582 C734.158594,37.6696582 724.974594,13.1966582 700.509594,7.07965821 C676.033594,0.966658215 617.919594,7.07965821 590.384594,7.07965821 C562.853594,7.07965821 229.970594,-15.7603418 201.900594,20.6076582 C173.825594,56.9746582 194.240594,273.353658 194.240594,273.353658 L253.900594,526.579658 L734.158594,470.263658" id="Fill-16" fill="#E25D6C"></path>
                <path d="M267.712594,79.5756582 C316.607594,88.7516582 507.029594,58.9276582 554.056594,65.8106582 C601.087594,72.6966582 669.911594,103.763658 683.677594,81.3456582 C692.150594,67.5526582 706.677594,36.4156582 706.461042,9.08365821 C704.575594,8.31065821 702.615594,7.61065821 700.509594,7.07965821 C676.033594,0.966658215 617.919594,7.07965821 590.384594,7.07965821 C566.204594,7.07965821 306.529594,-10.5253418 224.630594,9.81765821 C225.017594,29.4896582 230.204594,72.5326582 267.712594,79.5756582" id="Fill-17" fill="#E57487"></path>
                <path d="M734.158594,470.263658 L734.158594,368.837658 C649.279594,395.942658 397.337594,397.267658 379.310594,350.931658 C357.900594,295.868658 266.134594,188.814658 226.365594,158.216658 C199.560594,137.599658 208.888594,61.4316582 217.822594,11.7246582 C210.087594,14.1896582 204.583594,17.1306582 201.900594,20.6076582 C173.825594,56.9746582 194.240594,273.353658 194.240594,273.353658 L253.900594,526.579658 L734.158594,470.263658" id="Fill-18" fill="#D34F65"></path>
                <path d="M734.158594,37.6696582 C734.158594,37.6696582 726.415594,17.1776582 706.310594,9.02165821 C713.568594,35.3846582 718.263594,70.4356582 706.458594,102.517658 C683.677594,164.462658 697.587594,182.817658 702.107594,203.466658 C706.622594,224.114658 699.740594,377.821658 690.560594,403.060658 C681.388594,428.298658 635.505594,455.829658 644.677594,467.302658 C650.841594,475.005658 701.556594,472.353658 734.158594,469.778658 L734.158594,37.6696582" id="Fill-19" fill="#C0405D"></path>
                <path d="M322.548594,152.774658 C322.548594,152.774658 325.900594,220.673658 311.349594,232.142658 C298.251594,242.466658 267.712594,237.458658 267.712594,237.458658 C267.712594,237.458658 305.138594,242.466658 314.314594,259.669658 C316.443594,263.661658 324.634594,320.470658 324.634594,320.470658 C324.634594,320.470658 324.224594,273.485658 336.107594,263.290658 C351.017594,250.493658 404.935594,242.466658 404.935594,242.466658 C404.935594,242.466658 351.411594,242.181658 345.384594,237.876658 C329.322594,226.403658 322.548594,152.774658 322.548594,152.774658" id="Fill-20" fill="#A12E4A"></path>
                <path d="M471.673594,152.774658 C471.673594,152.774658 475.025594,220.673658 460.474594,232.142658 C447.380594,242.466658 416.833594,237.458658 416.833594,237.458658 C416.833594,237.458658 454.259594,242.466658 463.435594,259.669658 C465.564594,263.661658 473.759594,320.470658 473.759594,320.470658 C473.759594,320.470658 473.349594,273.485658 485.232594,263.290658 C500.142594,250.493658 554.056594,242.466658 554.056594,242.466658 C554.056594,242.466658 500.533594,242.181658 494.505594,237.876658 C478.450594,226.403658 471.673594,152.774658 471.673594,152.774658" id="Fill-21" fill="#A12E4A"></path>
                <path d="M625.384594,152.774658 C625.384594,152.774658 628.736594,220.673658 614.185594,232.142658 C601.087594,242.466658 570.548594,237.458658 570.548594,237.458658 C570.548594,237.458658 607.970594,242.466658 617.150594,259.669658 C619.275594,263.661658 627.474594,320.470658 627.474594,320.470658 C627.474594,320.470658 627.060594,273.485658 638.943594,263.290658 C653.857594,250.493658 707.767594,242.466658 707.767594,242.466658 C707.767594,242.466658 654.247594,242.181658 648.220594,237.876658 C632.158594,226.403658 625.384594,152.774658 625.384594,152.774658" id="Fill-22" fill="#A12E4A"></path>
                <path d="M612.560594,242.466658 C612.560594,251.333658 619.743594,258.524658 628.618594,258.524658 C637.486594,258.524658 644.677594,251.333658 644.677594,242.466658 C644.677594,233.595658 637.486594,226.403658 628.618594,226.403658 C619.743594,226.403658 612.560594,233.595658 612.560594,242.466658" id="Fill-23" fill="#E25D6C"></path>
                <path d="M460.618594,242.466658 C460.618594,251.333658 467.802594,258.524658 476.677594,258.524658 C485.544594,258.524658 492.736594,251.333658 492.736594,242.466658 C492.736594,233.595658 485.544594,226.403658 476.677594,226.403658 C467.802594,226.403658 460.618594,233.595658 460.618594,242.466658" id="Fill-24" fill="#E25D6C"></path>
                <path d="M308.677594,242.466658 C308.677594,251.333658 315.857594,258.524658 324.736594,258.524658 C333.603594,258.524658 340.794594,251.333658 340.794594,242.466658 C340.794594,233.595658 333.603594,226.403658 324.736594,226.403658 C315.857594,226.403658 308.677594,233.595658 308.677594,242.466658" id="Fill-25" fill="#E25D6C"></path>
                <path d="M336.322594,236.622658 C336.322594,236.622658 323.103594,220.458658 312.400594,236.622658 C312.400594,236.622658 309.720594,240.931658 315.458594,242.466658 C321.197594,243.993658 329.224594,240.552658 333.048594,242.466658 C336.865594,244.376658 339.427594,239.634658 336.322594,236.622658" id="Fill-26" fill="#EA90A0"></path>
                <path d="M488.255594,236.622658 C488.255594,236.622658 475.040594,220.458658 464.333594,236.622658 C464.333594,236.622658 461.658594,240.931658 467.392594,242.466658 C473.126594,243.993658 481.158594,240.552658 484.982594,242.466658 C488.802594,244.376658 491.361594,239.634658 488.255594,236.622658" id="Fill-27" fill="#EA90A0"></path>
                <path d="M640.197594,236.622658 C640.197594,236.622658 626.982594,220.458658 616.275594,236.622658 C616.275594,236.622658 613.599594,240.931658 619.337594,242.466658 C625.072594,243.993658 633.103594,240.552658 636.923594,242.466658 C640.747594,244.376658 643.302594,239.634658 640.197594,236.622658" id="Fill-28" fill="#EA90A0"></path>
                <path d="M1281.24559,470.263658 L1281.24559,37.6696582 C1281.24559,37.6696582 1272.05559,13.1966582 1247.59559,7.07965821 C1223.11559,0.966658215 1164.99559,7.07965821 1137.47559,7.07965821 C1109.93559,7.07965821 777.052594,-15.7603418 748.986594,20.6076582 C720.915594,56.9746582 741.325594,273.353658 741.325594,273.353658 L743.329594,520.720658 L1281.24559,470.263658" id="Fill-29" fill="#E25D6C"></path>
                <path d="M814.795594,79.5756582 C863.695594,88.7516582 1054.11559,58.9276582 1101.14559,65.8106582 C1148.17559,72.6966582 1217.00559,103.763658 1230.76559,81.3456582 C1239.23559,67.5526582 1253.76559,36.4156582 1253.54806,9.08365821 C1251.66559,8.31065821 1249.70559,7.61065821 1247.59559,7.07965821 C1223.11559,0.966658215 1164.99559,7.07965821 1137.47559,7.07965821 C1113.29559,7.07965821 853.615594,-10.5253418 771.720594,9.81765821 C772.103594,29.4896582 777.290594,72.5326582 814.795594,79.5756582" id="Fill-30" fill="#E57487"></path>
                <path d="M1281.24559,470.263658 L1281.24559,368.837658 C1196.36559,395.942658 944.415594,397.267658 926.405594,350.931658 C904.985594,295.868658 813.216594,188.814658 773.450594,158.216658 C746.650594,137.599658 755.978594,61.4316582 764.911594,11.7246582 C757.173594,14.1896582 751.673594,17.1306582 748.986594,20.6076582 C720.915594,56.9746582 741.325594,273.353658 741.325594,273.353658 L743.329594,520.720658 L1281.24559,470.263658" id="Fill-31" fill="#D34F65"></path>
                <path d="M1281.24559,37.6696582 C1281.24559,37.6696582 1273.49559,17.1776582 1253.39559,9.02165821 C1260.65559,35.3846582 1265.34559,70.4356582 1253.54559,102.517658 C1230.76559,164.462658 1244.67559,182.817658 1249.19559,203.466658 C1253.70559,224.114658 1246.82559,377.821658 1237.64559,403.060658 C1228.47559,428.298658 1182.58559,455.829658 1191.76559,467.302658 C1197.93559,475.005658 1248.64559,472.353658 1281.24559,469.778658 L1281.24559,37.6696582" id="Fill-32" fill="#C0405D"></path>
                <path d="M1281.24559,37.6696582 C1281.24559,37.6696582 1285.52559,438.153658 1235.89559,459.892658 L1280.34559,526.579658 L1307.63559,520.720658 C1307.63559,520.720658 1323.50559,474.396658 1339.82559,458.107658 C1339.82559,458.107658 1302.76559,398.470658 1296.05559,350.294658 C1289.35559,302.114658 1281.24559,37.6696582 1281.24559,37.6696582" id="Fill-33" fill="#A83052"></path>
                <polyline id="Fill-34" fill="#922843" points="1273.58559 483.181658 1264.11559 707.419658 1326.58559 707.419658 1308.94559 491.290658 1273.58559 483.181658"></polyline>
                <path d="M869.635594,152.774658 C869.635594,152.774658 872.985594,220.673658 858.435594,232.142658 C845.335594,242.466658 814.795594,237.458658 814.795594,237.458658 C814.795594,237.458658 852.225594,242.466658 861.395594,259.669658 C863.525594,263.661658 871.725594,320.470658 871.725594,320.470658 C871.725594,320.470658 871.305594,273.485658 883.185594,263.290658 C898.105594,250.493658 952.015594,242.466658 952.015594,242.466658 C952.015594,242.466658 898.495594,242.181658 892.465594,237.876658 C876.405594,226.403658 869.635594,152.774658 869.635594,152.774658" id="Fill-35" fill="#A12E4A"></path>
                <path d="M1018.75559,152.774658 C1018.75559,152.774658 1022.10559,220.673658 1007.55559,232.142658 C994.465594,242.466658 963.915594,237.458658 963.915594,237.458658 C963.915594,237.458658 1001.34559,242.466658 1010.52559,259.669658 C1012.64559,263.661658 1020.84559,320.470658 1020.84559,320.470658 C1020.84559,320.470658 1020.43559,273.485658 1032.31559,263.290658 C1047.23559,250.493658 1101.14559,242.466658 1101.14559,242.466658 C1101.14559,242.466658 1047.61559,242.181658 1041.59559,237.876658 C1025.53559,226.403658 1018.75559,152.774658 1018.75559,152.774658" id="Fill-36" fill="#A12E4A"></path>
                <path d="M1172.47559,152.774658 C1172.47559,152.774658 1175.82559,220.673658 1161.27559,232.142658 C1148.17559,242.466658 1117.63559,237.458658 1117.63559,237.458658 C1117.63559,237.458658 1155.05559,242.466658 1164.23559,259.669658 C1166.36559,263.661658 1174.55559,320.470658 1174.55559,320.470658 C1174.55559,320.470658 1174.14559,273.485658 1186.02559,263.290658 C1200.93559,250.493658 1254.85559,242.466658 1254.85559,242.466658 C1254.85559,242.466658 1201.32559,242.181658 1195.30559,237.876658 C1179.24559,226.403658 1172.47559,152.774658 1172.47559,152.774658" id="Fill-37" fill="#A12E4A"></path>
                <path d="M1159.64559,242.466658 C1159.64559,251.333658 1166.83559,258.524658 1175.70559,258.524658 C1184.57559,258.524658 1191.76559,251.333658 1191.76559,242.466658 C1191.76559,233.595658 1184.57559,226.403658 1175.70559,226.403658 C1166.83559,226.403658 1159.64559,233.595658 1159.64559,242.466658" id="Fill-38" fill="#E25D6C"></path>
                <path d="M1007.70559,242.466658 C1007.70559,251.333658 1014.89559,258.524658 1023.76559,258.524658 C1032.63559,258.524658 1039.81559,251.333658 1039.81559,242.466658 C1039.81559,233.595658 1032.63559,226.403658 1023.76559,226.403658 C1014.89559,226.403658 1007.70559,233.595658 1007.70559,242.466658" id="Fill-39" fill="#E25D6C"></path>
                <path d="M855.765594,242.466658 C855.765594,251.333658 862.955594,258.524658 871.815594,258.524658 C880.685594,258.524658 887.885594,251.333658 887.885594,242.466658 C887.885594,233.595658 880.685594,226.403658 871.815594,226.403658 C862.955594,226.403658 855.765594,233.595658 855.765594,242.466658" id="Fill-40" fill="#E25D6C"></path>
                <path d="M883.405594,236.622658 C883.405594,236.622658 870.195594,220.458658 859.485594,236.622658 C859.485594,236.622658 856.805594,240.931658 862.545594,242.466658 C868.285594,243.993658 876.305594,240.552658 880.135594,242.466658 C883.955594,244.376658 886.515594,239.634658 883.405594,236.622658" id="Fill-41" fill="#EA90A0"></path>
                <path d="M1035.34559,236.622658 C1035.34559,236.622658 1022.12559,220.458658 1011.41559,236.622658 C1011.41559,236.622658 1008.74559,240.931658 1014.47559,242.466658 C1020.21559,243.993658 1028.23559,240.552658 1032.06559,242.466658 C1035.89559,244.376658 1038.45559,239.634658 1035.34559,236.622658" id="Fill-42" fill="#EA90A0"></path>
                <path d="M1187.27559,236.622658 C1187.27559,236.622658 1174.06559,220.458658 1163.36559,236.622658 C1163.36559,236.622658 1160.68559,240.931658 1166.41559,242.466658 C1172.15559,243.993658 1180.18559,240.552658 1184.01559,242.466658 C1187.83559,244.376658 1190.39559,239.634658 1187.27559,236.622658" id="Fill-43" fill="#EA90A0"></path>
                <polyline id="Fill-44" fill="#2B0D0F" points="1952.92559 845.059658 1952.92559 961.319658 1923.86559 961.319658 1888.54559 845.059658 1952.92559 845.059658"></polyline>
                <polyline id="Fill-45" fill="#6A2527" points="1964.16559 845.059658 1964.16559 961.319658 1935.09559 961.319658 1899.77559 845.059658 1964.16559 845.059658"></polyline>
                <path d="M2000.74559,293.708658 C2000.74559,293.708658 1915.21559,203.466658 1828.03559,203.466658 C1828.03559,203.466658 1729.38559,221.817658 1717.91559,348.001658 C1706.43559,474.181658 1752.32559,820.599658 1752.32559,820.599658 L1878.50559,849.699658 L2000.74559,293.708658" id="Fill-46" fill="#C04057"></path>
                <path d="M1766.09559,256.255658 C1766.09559,256.255658 1674.31559,311.939658 1759.14559,820.849658 L1858.41559,845.059658 C1858.41559,845.059658 1831.38559,319.735658 1854.86559,296.786658 C1878.32559,273.841658 1766.09559,256.255658 1766.09559,256.255658" id="Fill-47" fill="#A12E4A"></path>
                <path d="M1828.86559,837.849658 C1832.25559,790.609658 1849.76559,525.064658 1816.66559,499.724658 C1781.85559,473.060658 1728.00559,438.298658 1723.50559,435.396658 C1721.37559,519.532658 1729.38559,642.259658 1759.14559,820.849658 L1828.86559,837.849658" id="Fill-48" fill="#922843"></path>
                <path d="M1928.98559,256.255658 C1928.98559,256.255658 2030.39559,256.255658 2029.92722,396.966658 C2029.54559,513.360658 1979.45559,849.699658 1979.45559,849.699658 L1878.50559,849.699658 C1878.50559,849.699658 1828.41559,513.360658 1828.03397,396.966658 C1827.56559,256.255658 1928.98559,256.255658 1928.98559,256.255658" id="Fill-49" fill="#E25D6C"></path>
                <path d="M2012.43559,311.939658 C2022.92559,332.103658 2030.05559,359.513658 2029.92559,396.966658 C2029.54559,513.360658 1979.45559,849.699658 1979.45559,849.699658 L1901.86559,849.699658 C1862.43559,772.869658 1920.00559,392.681658 1951.92559,348.001658 C1971.79559,320.165658 1995.75559,313.024658 2012.43559,311.939658" id="Fill-50" fill="#E57487"></path>
                <path d="M29.1815942,293.708658 C29.1815942,293.708658 114.716594,203.466658 201.900594,203.466658 C201.900594,203.466658 300.548594,221.817658 312.017594,348.001658 C323.486594,474.181658 277.603594,820.599658 277.603594,820.599658 L151.423594,849.699658 L29.1815942,293.708658" id="Fill-51" fill="#C04057"></path>
                <path d="M263.841594,256.255658 C263.841594,256.255658 355.607594,311.939658 270.779594,820.849658 L171.521594,845.059658 C171.521594,845.059658 198.548594,319.735658 175.072594,296.786658 C151.595594,273.841658 263.841594,256.255658 263.841594,256.255658" id="Fill-52" fill="#A12E4A"></path>
                <path d="M306.427594,435.396658 C306.427594,435.396658 198.798594,515.661658 194.833594,530.626658 C191.384594,543.642658 180.314594,760.999658 184.240594,841.959658 L255.243594,824.639658 L306.427594,435.396658" id="Fill-53" fill="#922843"></path>
                <path d="M201.900594,690.589658 L201.900594,849.699658 C201.900594,849.699658 208.634594,867.989658 234.322594,867.989658 L721.911594,867.989658 L1790.78559,863.359658 C1790.78559,863.359658 1815.26559,857.349658 1818.31559,845.059658 C1821.38559,832.769658 1816.07559,690.589658 1816.07559,690.589658 L201.900594,690.589658" id="Fill-54" fill="#C04057"></path>
                <path d="M1816.07559,690.589658 L733.068594,691.079658 C732.685594,694.639658 732.865594,698.099658 734.158594,700.819658 C738.740594,710.489658 756.923594,716.879658 756.923594,716.879658 L1816.66559,723.069658 C1816.35559,704.039658 1816.07559,690.589658 1816.07559,690.589658" id="Fill-55" fill="#922843"></path>
                <path d="M218.716594,750.249658 C214.130594,739.539658 201.900594,731.899658 201.900594,731.899658 L201.900594,849.699658 C201.900594,849.699658 208.634594,867.989658 234.322594,867.989658 L509.322594,867.989658 C509.322594,867.989658 234.013594,855.779658 218.716594,849.699658 C203.423594,843.599658 223.306594,760.959658 218.716594,750.249658" id="Fill-56" fill="#CF556E"></path>
                <path d="M201.900594,690.589658 C201.900594,690.589658 184.661594,713.669658 201.900594,721.669658 C219.134594,729.669658 710.634594,715.649658 710.634594,715.649658 L765.693594,716.959658 C765.693594,716.959658 740.263594,702.819658 737.208594,678.349658 C734.150594,653.879658 734.150594,458.107658 734.150594,458.107658 L706.618594,458.107658 L201.900594,690.589658" id="Fill-57" fill="#922843"></path>
                <path d="M100.947594,256.255658 C100.947594,256.255658 -0.46340575,256.255658 0,396.966658 C0.38859425,513.360658 50.4745942,849.699658 50.4745942,849.699658 L151.423594,849.699658 C151.423594,849.699658 201.517594,513.360658 201.898188,396.966658 C202.361594,256.255658 100.947594,256.255658 100.947594,256.255658" id="Fill-58" fill="#E25D6C"></path>
                <path d="M17.4865942,311.939658 C7.00959425,332.103658 -0.11940575,359.513658 0.00159424952,396.966658 C0.38859425,513.360658 50.4745942,849.699658 50.4745942,849.699658 L128.068594,849.699658 C167.486594,772.869658 109.927594,392.681658 78.0095942,348.001658 C58.1265942,320.165658 34.1815942,313.024658 17.4865942,311.939658" id="Fill-59" fill="#E57487"></path>
                <path d="M313.857594,458.107658 C313.857594,458.107658 214.142594,524.571658 201.900594,540.724658 C189.658594,556.869658 195.790594,687.529658 201.900594,690.589658 C208.005594,693.649658 694.380594,690.589658 694.380594,690.589658 C694.380594,690.589658 718.853594,684.469658 721.911594,666.119658 L721.911594,458.107658 L313.857594,458.107658" id="Fill-60" fill="#E57487"></path>
                <path d="M201.900594,690.589658 C208.005594,693.649658 694.380594,690.589658 694.380594,690.589658 C694.380594,690.589658 718.853594,684.469658 721.911594,666.119658 L721.911594,575.469658 C616.677594,577.119658 207.068594,580.969658 201.900594,540.724658 C189.658594,556.869658 195.790594,687.529658 201.900594,690.589658" id="Fill-61" fill="#E25D6C"></path>
                <path d="M734.158594,56.3996582 C734.158594,56.3996582 721.911594,445.536658 721.911594,458.107658 C721.911594,470.681658 721.911594,526.579658 721.911594,526.579658 L761.681594,519.001658 L734.158594,56.3996582" id="Fill-62" fill="#A83052"></path>
                <path d="M814.795594,458.107658 C814.795594,458.107658 773.072594,455.415658 761.681594,460.853658 C737.478594,472.399658 734.158594,484.118658 734.158594,510.099658 C734.158594,530.634658 734.158594,690.589658 734.158594,690.589658 C734.158594,690.589658 734.404594,681.319658 741.794594,694.269658 C749.189594,707.219658 1253.54559,696.959658 1253.54559,696.959658 C1253.54559,696.959658 1264.00559,699.379658 1272.50559,684.079658 C1281.00559,668.789658 1281.24559,508.345658 1281.24559,508.345658 C1281.24559,508.345658 1280.04559,464.860658 1235.89559,459.892658 C1191.76559,454.923658 814.795594,458.107658 814.795594,458.107658" id="Fill-63" fill="#E57487"></path>
                <path d="M734.158594,575.059658 C734.158594,627.169658 734.158594,690.589658 734.158594,690.589658 C740.177594,697.169658 747.091594,696.699658 750.212594,697.099658 C835.095594,707.759658 1253.54559,696.959658 1253.54559,696.959658 C1253.54559,696.959658 1264.00559,699.379658 1272.50559,684.079658 C1277.14559,675.709658 1279.32559,623.919658 1280.34559,578.699658 L734.158594,575.059658" id="Fill-64" fill="#E25D6C"></path>
                <path d="M706.458594,473.513658 C706.458594,473.513658 340.509594,463.732658 324.736594,472.399658 C308.958594,481.064658 266.134594,482.595658 284.486594,502.470658 C302.841594,522.357658 688.271594,538.442658 697.447594,526.579658 C706.622594,514.708658 713.954594,476.673658 706.458594,473.513658" id="Fill-65" fill="#EA8D9D"></path>
                <path d="M1704.11559,458.107658 C1704.11559,458.107658 1803.82559,524.571658 1816.07559,540.724658 C1828.31559,556.869658 1822.18559,687.529658 1816.07559,690.589658 C1809.96559,693.649658 1323.59559,690.589658 1323.59559,690.589658 C1323.59559,690.589658 1299.11559,684.469658 1296.05559,666.119658 L1296.05559,458.107658 L1704.11559,458.107658" id="Fill-66" fill="#E57487"></path>
                <path d="M1816.07559,690.589658 C1809.96559,693.649658 1323.59559,690.589658 1323.59559,690.589658 C1323.59559,690.589658 1299.11559,684.469658 1296.05559,666.119658 L1296.05559,575.469658 C1401.29559,577.119658 1810.90559,580.969658 1816.07559,540.724658 C1828.31559,556.869658 1822.18559,687.529658 1816.07559,690.589658" id="Fill-67" fill="#E25D6C"></path>
                <path d="M1311.50559,473.513658 C1311.50559,473.513658 1677.46559,463.732658 1693.23559,472.399658 C1709.01559,481.064658 1751.83559,482.595658 1733.48559,502.470658 C1715.12559,522.357658 1329.70559,538.442658 1320.52559,526.579658 C1311.34559,514.708658 1304.01559,476.673658 1311.50559,473.513658" id="Fill-68" fill="#EA8D9D"></path>
                <path d="M1241.93559,484.118658 C1241.93559,484.118658 807.572594,462.700658 781.564594,484.118658 C755.564594,505.536658 787.685594,519.079658 801.447594,520.720658 C815.215594,522.357658 1246.80559,534.364658 1253.54559,520.720658 C1260.28559,507.064658 1252.54559,484.622658 1241.93559,484.118658" id="Fill-69" fill="#EA8D9D"></path>
            </g>
        </g>
    </g>
</svg>